<?xml version="1.0" encoding="UTF-8" standalone="no"?><!DOCTYPE svg PUBLIC "-//W3C//DTD SVG 1.1//EN" "http://www.w3.org/Graphics/SVG/1.1/DTD/svg11.dtd"><svg width="100%" height="100%" viewBox="0 0 37 37" version="1.1" xmlns="http://www.w3.org/2000/svg" xmlns:xlink="http://www.w3.org/1999/xlink" xml:space="preserve" xmlns:serif="http://www.serif.com/" style="fill-rule:evenodd;clip-rule:evenodd;stroke-linejoin:round;stroke-miterlimit:2;"><g><path d="M31.746,3.286l-1.628,0l0,-2.714l-2.714,0l0,2.714l-17.911,0l0,-2.714l-2.714,0l0,2.714l-1.628,0c-2.244,0 -4.07,1.826 -4.07,4.07l0,23.882c0,2.244 1.826,4.07 4.07,4.07l26.595,0c2.245,0 4.071,-1.826 4.071,-4.07l0,-23.882c0,-2.244 -1.826,-4.07 -4.071,-4.07Zm1.357,27.952c0,0.748 -0.609,1.356 -1.357,1.356l-26.595,0c-0.748,0 -1.357,-0.608 -1.357,-1.356l0,-17.911l29.309,0l0,17.911Zm0,-20.625l-29.309,0l0,-3.257c0,-0.748 0.609,-1.357 1.357,-1.357l1.628,0l0,2.714l2.714,0l0,-2.714l17.911,0l0,2.714l2.714,0l0,-2.714l1.628,0c0.748,0 1.357,0.609 1.357,1.357l0,3.257Z" style="fill:#e7253b;fill-rule:nonzero;"/><rect x="6.237" y="16.176" width="2.714" height="2.714" style="fill:#e7253b;fill-rule:nonzero;"/><rect x="11.664" y="16.176" width="2.714" height="2.714" style="fill:#e7253b;fill-rule:nonzero;"/><rect x="17.092" y="16.176" width="2.714" height="2.714" style="fill:#e7253b;fill-rule:nonzero;"/><rect x="22.519" y="16.176" width="2.714" height="2.714" style="fill:#e7253b;fill-rule:nonzero;"/><rect x="27.947" y="16.176" width="2.714" height="2.714" style="fill:#e7253b;fill-rule:nonzero;"/><rect x="6.237" y="21.604" width="2.714" height="2.714" style="fill:#e7253b;fill-rule:nonzero;"/><rect x="11.664" y="21.604" width="2.714" height="2.714" style="fill:#e7253b;fill-rule:nonzero;"/><rect x="17.092" y="21.604" width="2.714" height="2.714" style="fill:#e7253b;fill-rule:nonzero;"/><rect x="22.519" y="21.604" width="2.714" height="2.714" style="fill:#e7253b;fill-rule:nonzero;"/><rect x="6.237" y="27.031" width="2.714" height="2.714" style="fill:#e7253b;fill-rule:nonzero;"/><rect x="11.664" y="27.031" width="2.714" height="2.714" style="fill:#e7253b;fill-rule:nonzero;"/><rect x="17.092" y="27.031" width="2.714" height="2.714" style="fill:#e7253b;fill-rule:nonzero;"/><rect x="22.519" y="27.031" width="2.714" height="2.714" style="fill:#e7253b;fill-rule:nonzero;"/><rect x="27.947" y="21.604" width="2.714" height="2.714" style="fill:#e7253b;fill-rule:nonzero;"/></g></svg>