<?xml version="1.0" encoding="UTF-8" standalone="no"?><!DOCTYPE svg PUBLIC "-//W3C//DTD SVG 1.1//EN" "http://www.w3.org/Graphics/SVG/1.1/DTD/svg11.dtd"><svg width="100%" height="100%" viewBox="0 0 78 760" version="1.1" xmlns="http://www.w3.org/2000/svg" xmlns:xlink="http://www.w3.org/1999/xlink" xml:space="preserve" xmlns:serif="http://www.serif.com/" style="fill-rule:evenodd;clip-rule:evenodd;"><g><path d="M39.925,102.031l0,-34" style="fill:none;fill-rule:nonzero;stroke:#e7253b;stroke-width:2px;"/><path d="M39.925,402.031l0,-273.355" style="fill:none;fill-rule:nonzero;stroke:#e7253b;stroke-width:2px;"/><path d="M40.925,715.034l-1,-289.353" style="fill:none;fill-rule:nonzero;stroke:#e7253b;stroke-width:2px;"/><circle cx="40.425" cy="119.665" r="17.5" style="fill:#e7253b;"/><circle cx="40.425" cy="418.665" r="17.5" style="fill:#e7253b;"/><circle cx="40.425" cy="731.665" r="17.5" style="fill:#e7253b;"/><circle cx="40.925" cy="36.105" r="35" style="fill:#e7253b;"/><rect x="36.47" y="36.849" width="7.91" height="2.637" style="fill-rule:nonzero;"/><path d="M54.433,39.486l-7.416,0l0,1.318c0,0.729 -0.59,1.319 -1.319,1.319l-10.546,0c-0.729,0 -1.319,-0.59 -1.319,-1.319l0,-1.318l-7.416,0c-1.705,0 -3.212,-1.087 -3.752,-2.704l-4.74,-14.223l0,28.792c0,2.181 1.774,3.955 3.955,3.955l37.09,0c2.181,0 3.955,-1.774 3.955,-3.955l0,-28.791l-4.741,14.222c-0.539,1.617 -2.047,2.704 -3.751,2.704Z" style="fill-rule:nonzero;"/><path d="M45.698,15.755l-10.547,0c-2.18,0 -3.955,1.775 -3.955,3.956l0,1.318l-11.003,0l4.973,14.919c0.18,0.539 0.683,0.901 1.251,0.901l7.416,0l0,-1.318c0,-0.729 0.59,-1.319 1.318,-1.319l10.547,0c0.729,0 1.319,0.59 1.319,1.319l0,1.318l7.416,0c0.568,0 1.071,-0.362 1.251,-0.901l4.973,-14.919l-11.004,0l0,-1.318c0,-2.181 -1.774,-3.956 -3.955,-3.956Zm-11.865,5.274l0,-1.318c0,-0.728 0.591,-1.319 1.318,-1.319l10.547,0c0.728,0 1.319,0.591 1.319,1.319l0,1.318l-13.184,0Z" style="fill-rule:nonzero;"/></g></svg>