<?xml version="1.0" encoding="UTF-8" standalone="no"?><!DOCTYPE svg PUBLIC "-//W3C//DTD SVG 1.1//EN" "http://www.w3.org/Graphics/SVG/1.1/DTD/svg11.dtd"><svg width="100%" height="100%" viewBox="0 0 37 37" version="1.1" xmlns="http://www.w3.org/2000/svg" xmlns:xlink="http://www.w3.org/1999/xlink" xml:space="preserve" xmlns:serif="http://www.serif.com/" style="fill-rule:evenodd;clip-rule:evenodd;stroke-linejoin:round;stroke-miterlimit:2;"><g><path d="M17.729,0.917c-6.785,0 -12.305,5.52 -12.305,12.305c0,2.293 0.635,4.53 1.837,6.47l9.768,15.741c0.187,0.301 0.516,0.484 0.871,0.484l0.008,0c0.358,-0.002 0.688,-0.191 0.872,-0.498l9.518,-15.893c1.136,-1.9 1.736,-4.08 1.736,-6.304c0,-6.785 -5.52,-12.305 -12.305,-12.305Zm8.809,17.556l-8.654,14.449l-8.88,-14.31c-1,-1.615 -1.543,-3.479 -1.543,-5.39c0,-5.654 4.614,-10.267 10.268,-10.267c5.654,0 10.261,4.613 10.261,10.267c0,1.854 -0.507,3.67 -1.452,5.251Z" style="fill:#e7253b;fill-rule:nonzero;"/><path d="M17.729,7.07c-3.392,0 -6.152,2.76 -6.152,6.152c0,3.371 2.715,6.152 6.152,6.152c3.48,0 6.152,-2.818 6.152,-6.152c0,-3.392 -2.76,-6.152 -6.152,-6.152Zm0,10.267c-2.273,0 -4.115,-1.848 -4.115,-4.115c0,-2.261 1.853,-4.115 4.115,-4.115c2.262,0 4.108,1.854 4.108,4.115c0,2.234 -1.798,4.115 -4.108,4.115Z" style="fill:#e7253b;fill-rule:nonzero;"/></g></svg>