<?xml version="1.0" encoding="UTF-8" standalone="no"?><!DOCTYPE svg PUBLIC "-//W3C//DTD SVG 1.1//EN" "http://www.w3.org/Graphics/SVG/1.1/DTD/svg11.dtd"><svg width="100%" height="100%" viewBox="0 0 30 40" version="1.1" xmlns="http://www.w3.org/2000/svg" xmlns:xlink="http://www.w3.org/1999/xlink" xml:space="preserve" xmlns:serif="http://www.serif.com/" style="fill-rule:evenodd;clip-rule:evenodd;stroke-linejoin:round;stroke-miterlimit:2;"><g><path d="M27.655,9.56l-7.072,-7.184c-0.132,-0.135 -0.312,-0.211 -0.5,-0.211l-14.85,0c-1.56,0 -2.829,1.289 -2.829,2.874l0,28.736c0,1.585 1.269,2.874 2.829,2.874l19.8,0c1.56,0 2.829,-1.289 2.829,-2.874l0,-23.707c0,-0.191 -0.075,-0.373 -0.207,-0.508Zm-6.865,-4.942l4.658,4.732l-3.243,0c-0.78,0 -1.415,-0.645 -1.415,-1.437l0,-3.295Zm5.658,29.157c0,0.792 -0.635,1.437 -1.415,1.437l-19.8,0c-0.78,0 -1.414,-0.645 -1.414,-1.437l0,-28.736c0,-0.792 0.634,-1.437 1.414,-1.437l14.143,0l0,4.311c0,1.585 1.269,2.873 2.829,2.873l4.243,0l0,22.989Z" style="fill:#fff;fill-rule:nonzero;"/><path d="M18.739,23.255c-0.655,-0.523 -1.277,-1.061 -1.691,-1.482c-0.539,-0.547 -1.019,-1.078 -1.436,-1.583c0.65,-2.042 0.936,-3.095 0.936,-3.656c0,-2.385 -0.848,-2.874 -2.122,-2.874c-0.967,0 -2.121,0.511 -2.121,2.942c0,1.072 0.578,2.374 1.723,3.886c-0.28,0.87 -0.609,1.872 -0.98,3.002c-0.178,0.543 -0.371,1.045 -0.576,1.51c-0.166,0.075 -0.328,0.151 -0.484,0.23c-0.562,0.286 -1.096,0.543 -1.591,0.781c-2.258,1.086 -3.75,1.805 -3.75,3.223c0,1.03 1.102,1.668 2.122,1.668c1.315,0 3.3,-1.784 4.75,-4.79c1.506,-0.603 3.377,-1.05 4.854,-1.33c1.184,0.925 2.491,1.809 3.125,1.809c1.753,0 2.121,-1.03 2.121,-1.893c0,-1.699 -1.91,-1.699 -2.829,-1.699c-0.285,0 -1.05,0.086 -2.051,0.256Zm-9.97,6.21c-0.404,0 -0.678,-0.194 -0.707,-0.231c0,-0.509 1.495,-1.229 2.941,-1.925c0.092,-0.044 0.185,-0.088 0.28,-0.134c-1.062,1.565 -2.113,2.29 -2.514,2.29Zm4.95,-12.863c0,-1.505 0.46,-1.505 0.707,-1.505c0.5,0 0.707,0 0.707,1.437c0,0.303 -0.199,1.06 -0.563,2.243c-0.555,-0.868 -0.851,-1.613 -0.851,-2.175Zm0.542,7.722c0.044,-0.125 0.087,-0.251 0.129,-0.379c0.262,-0.8 0.498,-1.518 0.709,-2.165c0.293,0.328 0.61,0.664 0.949,1.009c0.132,0.134 0.461,0.438 0.899,0.817c-0.872,0.193 -1.799,0.432 -2.686,0.718Zm7.944,0.374c0,0.323 0,0.456 -0.656,0.461c-0.193,-0.042 -0.638,-0.309 -1.188,-0.689c0.199,-0.023 0.347,-0.034 0.429,-0.034c1.045,0 1.342,0.104 1.415,0.262Z" style="fill:#fff;fill-rule:nonzero;"/></g></svg>