<?xml version="1.0" encoding="UTF-8" standalone="no"?><!DOCTYPE svg PUBLIC "-//W3C//DTD SVG 1.1//EN" "http://www.w3.org/Graphics/SVG/1.1/DTD/svg11.dtd"><svg width="100%" height="100%" viewBox="0 0 80 343" version="1.1" xmlns="http://www.w3.org/2000/svg" xmlns:xlink="http://www.w3.org/1999/xlink" xml:space="preserve" xmlns:serif="http://www.serif.com/" style="fill-rule:evenodd;clip-rule:evenodd;"><ellipse cx="40.832" cy="38.829" rx="35.463" ry="35.003" style="fill:#e7253b;"/><path d="M40.832,43.702l-15.113,-4.761l0,7.952c0,3.675 6.769,6.656 15.118,6.656c8.348,0 15.118,-2.981 15.118,-6.656c0,-0.029 -0.01,-0.058 -0.01,-0.087l0,-7.865l-15.113,4.761Z" style="fill-rule:nonzero;"/><path d="M15.501,33.468l5.399,1.977l0.46,-1.009l1.984,-0.172l0.283,0.301l-1.702,0.413l-0.248,0.751c-0.001,0 -3.845,8.225 -3.28,12.249c0,0 2.399,1.465 4.798,0l0.637,-11.001l0,-0.916l3.57,-0.824l-0.252,0.635l-2.662,0.886l1.231,0.45l15.113,4.761l15.113,-4.761l10.218,-3.74l-25.331,-9.974l-25.331,9.974Z" style="fill-rule:nonzero;"/><path d="M38.806,107.924l0,-35.121" style="fill:none;fill-rule:nonzero;stroke:#e7253b;stroke-width:2.02px;"/><path d="M38.806,290.553l0,-156.539" style="fill:none;fill-rule:nonzero;stroke:#e7253b;stroke-width:2.02px;"/><ellipse cx="39.312" cy="122.474" rx="17.732" ry="17.56" style="fill:#e7253b;"/><ellipse cx="38.299" cy="306.107" rx="17.732" ry="17.56" style="fill:#e7253b;"/></svg>